<svg xmlns="http://www.w3.org/2000/svg" viewBox="0 0 100 150" width="32" height="48">
  <!-- Crown -->
  <ellipse cx="50" cy="25" rx="25" ry="8" fill="#FFD700" stroke="#333" stroke-width="1"/>
  <path d="M25 25 L35 15 L40 20 L45 10 L50 18 L55 10 L60 20 L65 15 L75 25 Z" fill="#FFD700" stroke="#333" stroke-width="1"/>
  <circle cx="50" cy="12" r="3" fill="#FFD700" stroke="#333" stroke-width="1"/>
  <path d="M49 12 L51 12 L50 8 Z" fill="#FFD700" stroke="#333" stroke-width="1"/>
  
  <!-- Shield body -->
  <path d="M25 25 L25 90 Q25 110 50 120 Q75 110 75 90 L75 25 Z" fill="#003F7F" stroke="#333" stroke-width="1"/>
  
  <!-- Three crowns -->
  <!-- Top crown -->
  <rect x="40" y="35" width="20" height="8" fill="#FFD700"/>
  <path d="M40 35 L45 30 L50 33 L55 30 L60 35 Z" fill="#FFD700"/>
  <circle cx="50" cy="29" r="1.5" fill="#FFD700"/>
  
  <!-- Left crown -->
  <rect x="30" y="55" width="15" height="6" fill="#FFD700"/>
  <path d="M30 55 L33 51 L37.5 53 L42 51 L45 55 Z" fill="#FFD700"/>
  <circle cx="37.5" cy="50" r="1" fill="#FFD700"/>
  
  <!-- Right crown -->
  <rect x="55" y="55" width="15" height="6" fill="#FFD700"/>
  <path d="M55 55 L58 51 L62.5 53 L67 51 L70 55 Z" fill="#FFD700"/>
  <circle cx="62.5" cy="50" r="1" fill="#FFD700"/>
  
  <!-- Sword handle -->
  <rect x="47" y="120" width="6" height="25" fill="#8B4513"/>
  <rect x="45" y="140" width="10" height="4" fill="#FFD700"/>
  <path d="M45 140 L55 140 L52 144 L48 144 Z" fill="#FFD700"/>
</svg>