<svg xmlns="http://www.w3.org/2000/svg" viewBox="0 0 200 280">
  <!-- Crown -->
  <path d="M 100 10 L 85 40 L 80 35 L 75 55 L 65 45 L 60 70 L 50 55 L 40 80 L 35 60 L 25 80 L 100 95 L 175 80 L 165 60 L 155 80 L 145 55 L 135 70 L 130 45 L 120 55 L 115 35 L 110 40 Z" fill="#1a1a1a"/>
  
  <!-- Cross/sword below crown -->
  <g transform="translate(100, 110)">
    <!-- Vertical line -->
    <line x1="0" y1="-8" x2="0" y2="25" stroke="#1a1a1a" stroke-width="2.5" stroke-linecap="round"/>
    <!-- Horizontal line (crossguard) -->
    <line x1="-8" y1="2" x2="8" y2="2" stroke="#1a1a1a" stroke-width="2.5" stroke-linecap="round"/>
    <!-- Pommel -->
    <circle cx="0" cy="27" r="2.5" fill="#1a1a1a"/>
  </g>
  
  <!-- Shield -->
  <path d="M 70 150 Q 70 155 75 160 Q 75 175 100 190 Q 125 175 125 160 Q 130 155 130 150 L 100 145 Z" fill="none" stroke="#1a1a1a" stroke-width="2"/>
  
  <!-- Three crowns inside shield -->
  <g transform="translate(75, 170)">
    <circle cx="0" cy="0" r="2.5" fill="#1a1a1a"/>
    <path d="M -2 2 L -3 5 L -1 4 L 0 2.5 L 1 4 L 3 5 L 2 2 Z" fill="#1a1a1a"/>
  </g>
  <g transform="translate(100, 165)">
    <circle cx="0" cy="0" r="2.5" fill="#1a1a1a"/>
    <path d="M -2 2 L -3 5 L -1 4 L 0 2.5 L 1 4 L 3 5 L 2 2 Z" fill="#1a1a1a"/>
  </g>
  <g transform="translate(125, 170)">
    <circle cx="0" cy="0" r="2.5" fill="#1a1a1a"/>
    <path d="M -2 2 L -3 5 L -1 4 L 0 2.5 L 1 4 L 3 5 L 2 2 Z" fill="#1a1a1a"/>
  </g>
  
  <!-- Text -->
  <text x="100" y="220" font-family="Georgia, serif" font-size="28" font-weight="300" text-anchor="middle" fill="#1a1a1a" letter-spacing="2">FÖRSVARSMAKTEN</text>
</svg>